<?xml version="1.0" encoding="utf-8"?>
<!-- Generator: Adobe Illustrator 23.0.1, SVG Export Plug-In . SVG Version: 6.00 Build 0)  -->
<svg version="1.1" id="Capa_1" xmlns="http://www.w3.org/2000/svg" xmlns:xlink="http://www.w3.org/1999/xlink" x="0px" y="0px"
	 viewBox="0 0 805 600" style="enable-background:new 0 0 805 600;" xml:space="preserve">
<style type="text/css">
	.st0{fill:none;stroke:#001233;stroke-width:22.8607;}
	.st1{fill:none;stroke:#001233;stroke-width:11.8876;}
	.st2{fill:none;stroke:#001233;stroke-width:10.0587;}
	.st3{fill:none;stroke:#5C677D;stroke-width:2.7433;}
	.st4{fill:none;stroke:#5C677D;stroke-width:7.3154;}
	.st5{fill:none;stroke:#33415C;stroke-width:5.4866;}
	.st6{fill:none;stroke:#33415C;stroke-width:2.7433;}
	.st7{fill:none;stroke:#33415C;stroke-width:28.3473;}
	.st8{fill:none;stroke:#0466C8;stroke-width:27.4329;}
	.st9{fill:none;stroke:#0466C8;stroke-width:53.9513;}
	.st10{fill:none;stroke:#0466C8;stroke-width:2.7433;}
	.st11{fill:none;stroke:#0466C8;stroke-width:63.0956;}
	.st12{fill:none;stroke:#0466C8;stroke-width:19.203;}
	.st13{fill:none;stroke:#002855;stroke-width:30.1762;}
	.st14{fill:none;stroke:#002855;stroke-width:36.5772;}
	.st15{fill:none;stroke:#002855;stroke-width:16.4597;}
	.st16{fill:none;stroke:#979DAC;stroke-width:3.6577;}
	.st17{fill:none;stroke:#001845;stroke-width:4.5721;}
	.st18{fill:none;stroke:#001845;stroke-width:40.2349;}
	.st19{fill:none;stroke:#001845;stroke-width:27.4329;}
	.st20{fill:none;stroke:#001845;stroke-width:2.7433;}
	.st21{fill:none;stroke:#023E7D;stroke-width:107.9027;}
	.st22{fill:none;stroke:#023E7D;stroke-width:5.4866;}
	.st23{font-family:'Arial-BoldMT';}
	.st24{font-size:10px;}
	.st25{fill:#FFFFFF;}
</style>
<g id="visualization" transform="translate(9,10)">
	<g>
		<rect x="781" y="5" width="5" height="2.7">
		<title>Willem Lannister: 3</title>
		</rect>
		<rect width="5" height="3.7">
		<title>Rickon Stark: 4</title>
		</rect>
		<rect y="8.7" width="5" height="10.1">
		<title>Benjen Stark: 11</title>
		</rect>
		<rect x="781" y="12.7" width="5" height="10.1">
		<title>Stafford Lannister: 11</title>
		</rect>
		<rect y="23.7" width="5" height="36.6">
		<title>Bran Stark: 40</title>
		</rect>
		<rect y="65.3" width="5" height="56.7">
		<title>Arya Stark: 62</title>
		</rect>
		<rect x="781" y="27.8" width="5" height="58.5">
		<title>Cersei Lannister: 64</title>
		</rect>
		<rect y="127" width="5" height="75">
		<title>Robb Stark: 82</title>
		</rect>
		<rect x="781" y="91.3" width="5" height="80.5">
		<title>Tywin Lannister: 88</title>
		</rect>
		<rect y="207" width="5" height="83.2">
		<title>Eddard Stark: 91</title>
		</rect>
		<rect x="781" y="176.8" width="5" height="96">
		<title>Jaime Lannister: 105</title>
		</rect>
		<rect y="295.2" width="5" height="113.4">
		<title>Sansa Stark: 124</title>
		</rect>
		<rect y="413.6" width="5" height="166.4">
		<title>Catelyn Stark: 182</title>
		</rect>
		<rect x="781" y="277.8" width="5" height="297.2">
		<title>Tyrion Lannister: 325</title>
		</rect>
	</g>
	<g>
		<g>
			<path class="st0" d="M5,76.7c388,0,388-29.3,776-29.3"/>
		</g>
		<g>
			<path class="st1" d="M5,106c388,0,388,76.8,776,76.8"/>
		</g>
		<g>
			<path class="st2" d="M5,117c388,0,388,205.2,776,205.2"/>
		</g>
		<g>
			<path class="st1" d="M5,94.1c388,0,388,3.2,776,3.2"/>
		</g>
		<g>
			<path class="st3" d="M5,10c388,0,388,19.1,776,19.1"/>
		</g>
		<g>
			<path class="st4" d="M5,15.1c388,0,388,270.1,776,270.1"/>
		</g>
		<g>
			<path class="st5" d="M5,29.2c388,0,388,4.1,776,4.1"/>
		</g>
		<g>
			<path class="st6" d="M5,25.1c388,0,388-11,776-11"/>
		</g>
		<g>
			<path class="st7" d="M5,46.1C393,46.1,393,303,781,303"/>
		</g>
		<g>
			<path class="st8" d="M5,430c388,0,388-357.4,776-357.4"/>
		</g>
		<g>
			<path class="st9" d="M5,489.9c388,0,388-244.1,776-244.1"/>
		</g>
		<g>
			<path class="st10" d="M5,414.9c388,0,388-393.5,776-393.5"/>
		</g>
		<g>
			<path class="st11" d="M5,548.5c388,0,388-5,776-5"/>
		</g>
		<g>
			<path class="st12" d="M5,453.4c388,0,388-291.2,776-291.2"/>
		</g>
		<g>
			<path class="st13" d="M5,238.5c388,0,388-34.7,776-34.7"/>
		</g>
		<g>
			<path class="st14" d="M5,271.9c388,0,388,113.8,776,113.8"/>
		</g>
		<g>
			<path class="st15" d="M5,215.2c388,0,388-76.3,776-76.3"/>
		</g>
		<g>
			<path class="st16" d="M5,1.8c388,0,388,277.8,776,277.8"/>
		</g>
		<g>
			<path class="st17" d="M5,132c388,0,388-114.2,776-114.2"/>
		</g>
		<g>
			<path class="st18" d="M5,181.9c388,0,388,165.5,776,165.5"/>
		</g>
		<g>
			<path class="st19" d="M5,148c388,0,388-31.1,776-31.1"/>
		</g>
		<g>
			<path class="st20" d="M5,128.4c388,0,388-122,776-122"/>
		</g>
		<g>
			<path class="st21" d="M5,354.6c388,0,388,103.3,776,103.3"/>
		</g>
		<g>
			<path class="st22" d="M5,297.9c388,0,388-148.1,776-148.1"/>
		</g>
	</g>
	<g>
		<g>
			<text transform="matrix(1 0 0 1 697.0732 5.8527)" class="st23 st24">Willem Lannister</text>
		</g>
		<text transform="matrix(1 0 0 1 9 3.6575)" class="st23 st24">Rickon Stark</text>
		<text transform="matrix(1 0 0 1 9 17.2538)" class="st25 st23 st24">Benjen Stark</text>
		<text transform="matrix(1 0 0 1 690.8818 21.4305)" class="st25 st23 st24">Stafford Lannister</text>
		<text transform="matrix(1 0 0 1 9 47.4624)" class="st25 st23 st24">Bran Stark</text>
		<text transform="matrix(1 0 0 1 9 93.1219)" class="st25 st23 st24">Arya Stark</text>
		<text transform="matrix(1 0 0 1 698.6357 56.5447)" class="st25 st23 st24">Cersei Lannister</text>
		<text transform="matrix(1 0 0 1 9 163.9609)" class="st25 st23 st24">Robb Stark</text>
		<text transform="matrix(1 0 0 1 701.6191 131.0414)" class="st25 st23 st24">Tywin Lannister</text>
		<text transform="matrix(1 0 0 1 9 248.059)" class="st25 st23 st24">Eddard Stark</text>
		<text transform="matrix(1 0 0 1 700.8574 224.2839)" class="st25 st23 st24">Jaime Lannister</text>
		<text transform="matrix(1 0 0 1 9 351.3602)" class="st25 st23 st24">Sansa Stark</text>
		<text transform="matrix(1 0 0 1 9 496.2679)" class="st25 st23 st24">Catelyn Stark</text>
		<text transform="matrix(1 0 0 1 699.3975 425.8862)" class="st25 st23 st24">Tyrion Lannister</text>
	</g>
</g>
</svg>
